<svg aria-hidden="true" style="position: absolute; width: 0; height: 0; overflow: hidden;" version="1.1" xmlns="http://www.w3.org/2000/svg" xmlns:xlink="http://www.w3.org/1999/xlink">
<defs>
<symbol id="trash" viewBox="0 0 32 32">
<path d="M26.666 3.983h-6.266c-0.221-2.233-2.11-3.983-4.4-3.983s-4.179 1.75-4.4 3.983h-6.266c-1.88 0-3.41 1.53-3.41 3.41 0 1.823 1.439 3.317 3.24 3.405v17.084c0 2.271 1.847 4.118 4.118 4.118h13.436c2.271 0 4.118-1.847 4.118-4.118v-17.084c1.802-0.089 3.24-1.582 3.24-3.405 0-1.88-1.53-3.41-3.41-3.41zM16 2.094c1.134 0 2.080 0.815 2.286 1.889h-4.573c0.206-1.075 1.153-1.889 2.286-1.889zM24.742 27.882c0 1.116-0.908 2.024-2.024 2.024h-13.436c-1.116 0-2.024-0.908-2.024-2.024v-17.080c0.855 0 16.815 0 17.484 0v17.080zM26.666 8.709c-0.218 0-21.147 0-21.333 0-0.726 0-1.316-0.59-1.316-1.316s0.59-1.316 1.316-1.316h21.333c0.726 0 1.316 0.59 1.316 1.316s-0.59 1.316-1.316 1.316z"></path>
<path d="M16 27.381c0.578 0 1.047-0.469 1.047-1.047v-12.123c0-0.578-0.469-1.047-1.047-1.047s-1.047 0.469-1.047 1.047v12.123c0 0.578 0.469 1.047 1.047 1.047z"></path>
<path d="M21.403 27.381c0.578 0 1.047-0.469 1.047-1.047v-12.123c0-0.578-0.469-1.047-1.047-1.047s-1.047 0.469-1.047 1.047v12.123c0 0.578 0.469 1.047 1.047 1.047z"></path>
<path d="M10.597 27.381c0.578 0 1.047-0.469 1.047-1.047v-12.123c0-0.578-0.469-1.047-1.047-1.047s-1.047 0.469-1.047 1.047v12.123c0 0.578 0.469 1.047 1.047 1.047z"></path>
</symbol>
<symbol id="task" viewBox="0 0 32 32">
<path d="M23.090 0h-14.222c-2.745 0-4.957 2.261-4.957 5.007v22.042c0 2.745 2.212 4.951 4.957 4.951h14.222c2.745 0 4.999-2.206 4.999-4.951v-22.042c0-2.745-2.254-5.007-4.999-5.007zM26.667 27.049c0 1.961-1.616 3.529-3.577 3.529h-14.222c-1.961 0-3.535-1.568-3.535-3.529v-22.042c0-1.961 1.574-3.585 3.535-3.585h14.222c1.961 0 3.577 1.623 3.577 3.585v22.042z"></path>
<path d="M9.6 3.556h12.8v1.422h-12.8v-1.422z"></path>
<path d="M9.6 10.667h-0.711c-0.393 0-0.711 0.318-0.711 0.711v1.422c0 0.393 0.318 0.711 0.711 0.711h0.711c0.393 0 0.711-0.318 0.711-0.711v-1.422c0-0.393-0.318-0.711-0.711-0.711z"></path>
<path d="M9.6 17.067h-0.711c-0.393 0-0.711 0.318-0.711 0.711v1.422c0 0.393 0.318 0.711 0.711 0.711h0.711c0.393 0 0.711-0.318 0.711-0.711v-1.422c0-0.393-0.318-0.711-0.711-0.711z"></path>
<path d="M9.6 23.467h-0.711c-0.393 0-0.711 0.318-0.711 0.711v1.422c0 0.393 0.318 0.711 0.711 0.711h0.711c0.393 0 0.711-0.318 0.711-0.711v-1.422c0-0.393-0.318-0.711-0.711-0.711z"></path>
<path d="M12.444 11.378h11.378v1.422h-11.378v-1.422z"></path>
<path d="M12.444 17.778h11.378v1.422h-11.378v-1.422z"></path>
<path d="M12.444 24.178h11.378v1.422h-11.378v-1.422z"></path>
</symbol>
<symbol id="thought" viewBox="0 0 32 32">
<path d="M30.073 0.010l-3 2.246-3.017 7.035h-2.426l-0.953-2.065h0.622c1.139 0 2.065-0.916 2.065-2.055v-2.074h1.032v-3.097h-3.097v3.097h1.032v2.074c0 0.569-0.463 1.022-1.032 1.022h-1.099l-1.319-2.854 1.58-0.788-5.175-2.216-1.217 4.258c-0.033-2.533-2.101-4.584-4.642-4.584-2.562 0-4.645 2.084-4.645 4.645 0 1.548 0.784 3 2.065 3.858v0.778h-1.25l-0.081 0.423c-0.251 1.301-0.274 2.638-0.069 3.972l-3.521 6.276 3.888 0.888v6.505h5.161v4.645h12.387v-7.192c3.613-2.556 5.676-6.665 5.673-11.049l0.001-1.883c0-0.71-0.066-1.439-0.198-2.157l-0.076-0.428h-1.013l2.323-5.564v-3.716zM22.331 2.074v-1.032h1.032v1.032h-1.032zM20.492 9.29h-1.958l-0.938-2.065h1.943l0.953 2.065zM15.957 1.747l2.052 0.879-0.484 0.237 1.539 3.33h-1.936l-1.258-2.761-0.462 0.233 0.549-1.919zM17.401 9.29h-2.295v-1.022c0-0.569 0.463-1.042 1.032-1.042l0.325-0 0.938 2.065zM15.374 4.84l0.626 1.378c-1.074 0.072-1.927 0.959-1.927 2.051v1.022h-2.065v-0.778c1.033-0.692 1.734-1.772 1.97-2.975l1.395-0.697zM5.815 4.655c0-1.992 1.621-3.613 3.613-3.613s3.613 1.621 3.613 3.613c0 1.282-0.693 2.48-1.807 3.126l-0.258 0.149v1.361h-1.032v-3.182c0.599-0.214 1.032-0.781 1.032-1.453 0-0.854-0.695-1.548-1.548-1.548s-1.548 0.695-1.548 1.549c0 0.672 0.433 1.24 1.032 1.453v3.182h-1.032v-1.361l-0.258-0.149c-1.114-0.646-1.807-1.843-1.807-3.125zM9.428 5.171c-0.285 0-0.516-0.232-0.516-0.516s0.231-0.516 0.516-0.516 0.516 0.231 0.516 0.516-0.231 0.516-0.516 0.516zM27.895 10.323c0.075 0.516 0.113 1.039 0.113 1.548l0.001 1.886c0.003 4.135-2.037 8.007-5.45 10.357l-0.227 0.155v6.699h-10.323v-4.645h-5.161v-6.296l-3.345-0.763 3.021-5.387-0.029-0.184c-0.192-1.129-0.203-2.338-0.036-3.37h21.437zM26.632 9.29h-1.454l2.573-5.998 1.144 0.57-2.263 5.429zM29.041 2.787l-0.571-0.285 0.571-0.427v0.713z"></path>
<path d="M10.46 13.419c-0.854 0-1.548-0.516-1.548-1.548h-1.032c0 1.548 1.158 2.581 2.581 2.581s2.581-1.032 2.581-2.581h-1.032c-0 1.032-0.695 1.548-1.548 1.548z"></path>
</symbol>
<symbol id="quote" viewBox="0 0 32 32">
<path d="M0 4c0-2.209 1.791-4 4-4v0h24c2.209 0 4 1.791 4 4v0 16c0 2.209-1.791 4-4 4v0h-5c-0.652 0-1.231 0.312-1.596 0.795l-0.004 0.005-3.8 5.066c-0.369 0.488-0.948 0.8-1.6 0.8s-1.231-0.312-1.596-0.795l-0.004-0.005-3.8-5.066c-0.369-0.488-0.948-0.8-1.6-0.8v0h-5c-2.209 0-4-1.791-4-4v0-16zM14.388 9.532c-0.138-0.204-0.287-0.382-0.453-0.543l-0.001-0.001c-0.261-0.269-0.573-0.487-0.919-0.641l-0.019-0.007-0.016-0.008c-0.441-0.21-0.958-0.332-1.503-0.332-0.003 0-0.006 0-0.009 0h0c-1.916 0-3.468 1.492-3.468 3.334 0 1.84 1.552 3.332 3.468 3.332 0.686 0 1.324-0.19 1.862-0.52-0.274 0.778-0.78 1.608-1.62 2.44-0.151 0.147-0.244 0.353-0.244 0.58 0 0.238 0.102 0.452 0.266 0.6l0.001 0.001c0.346 0.32 0.894 0.31 1.228-0.020 2.668-2.658 2.74-5.516 1.882-7.412-0.139-0.307-0.291-0.57-0.464-0.816l0.010 0.015zM22 14.146c-0.272 0.778-0.78 1.608-1.62 2.44-0.15 0.147-0.243 0.352-0.243 0.579 0 0.238 0.103 0.452 0.267 0.601l0.001 0.001c0.344 0.32 0.892 0.31 1.226-0.020 2.668-2.658 2.74-5.516 1.884-7.412-0.14-0.307-0.292-0.569-0.466-0.815l0.010 0.015c-0.138-0.205-0.287-0.384-0.453-0.545l-0.001-0.001c-0.261-0.269-0.573-0.487-0.919-0.641l-0.019-0.007-0.016-0.008c-0.441-0.21-0.958-0.332-1.503-0.332-0.002 0-0.005 0-0.007 0h0c-1.914 0-3.468 1.492-3.468 3.334 0 1.84 1.554 3.332 3.468 3.332 0.686 0 1.324-0.19 1.862-0.52z"></path>
</symbol>
<symbol id="idea" viewBox="0 0 32 32">
<path d="M8.191 2.797c0.147 0.146 0.34 0.221 0.533 0.221s0.385-0.074 0.533-0.221c0.296-0.296 0.296-0.772 0-1.066l-1.508-1.51c-0.295-0.295-0.771-0.295-1.066 0s-0.295 0.772 0 1.066l1.508 1.51z"></path>
<path d="M24.783 0.221l-1.508 1.51c-0.296 0.295-0.296 0.771 0 1.066 0.146 0.146 0.339 0.221 0.533 0.221 0.192 0 0.385-0.074 0.532-0.221l1.509-1.51c0.296-0.295 0.296-0.771 0-1.066s-0.771-0.295-1.066 0z"></path>
<path d="M8.191 18.322l-1.508 1.508c-0.295 0.296-0.295 0.772 0 1.066 0.147 0.147 0.34 0.221 0.533 0.221s0.385-0.072 0.533-0.221l1.508-1.508c0.296-0.296 0.296-0.772 0-1.066s-0.771-0.296-1.066 0z"></path>
<path d="M24.341 18.322c-0.295-0.296-0.771-0.296-1.066 0s-0.296 0.771 0 1.066l1.508 1.508c0.147 0.147 0.34 0.221 0.533 0.221s0.385-0.072 0.533-0.221c0.296-0.295 0.296-0.771 0-1.066l-1.509-1.508z"></path>
<path d="M3.934 10.13h-1.508c-0.417 0-0.754 0.337-0.754 0.754s0.337 0.754 0.754 0.754h1.508c0.417 0 0.754-0.337 0.754-0.754s-0.337-0.754-0.754-0.754z"></path>
<path d="M29.575 10.13h-1.508c-0.417 0-0.754 0.337-0.754 0.754s0.337 0.754 0.754 0.754h1.508c0.417 0 0.754-0.337 0.754-0.754s-0.337-0.754-0.754-0.754z"></path>
<path d="M20.645 19.131c0.768-0.419 1.721-0.942 2.419-1.639 1.857-1.857 2.9-4.314 2.938-6.921 0.037-2.63-0.96-5.096-2.807-6.943-1.851-1.851-4.313-2.873-6.932-2.873-2.618 0-5.079 1.021-6.931 2.873-1.856 1.856-2.9 4.314-2.938 6.921-0.037 2.63 0.96 5.096 2.807 6.943 0.689 0.689 1.488 1.226 2.274 1.695v8.288c0 2.495 2.029 4.525 4.525 4.525s4.525-2.030 4.525-4.525v-3.015c0-0.010 0-0.020 0-0.029v-3.743c0-0.010-0.001-0.020-0.002-0.030v-1.46c0.040-0.021 0.080-0.045 0.121-0.067zM10.268 16.424c-1.557-1.556-2.396-3.636-2.365-5.856 0.032-2.212 0.919-4.298 2.498-5.875 1.566-1.567 3.649-2.43 5.865-2.43s4.298 0.863 5.865 2.43c1.558 1.557 2.397 3.637 2.365 5.855-0.031 2.213-0.919 4.298-2.498 5.876-0.545 0.546-1.394 1.010-2.077 1.383-0.191 0.106-0.369 0.203-0.529 0.294-0.234 0.135-0.376 0.385-0.376 0.654v1.933h-6.033l0.002-1.933c0-0.269-0.143-0.518-0.376-0.654-0.816-0.47-1.664-1.001-2.34-1.677zM13.559 22.196l5.458 2.729v0.971l-6.033-2.681v-1.018h0.575zM16.931 22.196h2.085v1.043l-2.085-1.043zM12.983 24.865l4.176 1.856h-4.176v-1.856zM16 30.492c-1.403 0-2.586-0.963-2.921-2.262h5.842c-0.336 1.3-1.518 2.262-2.921 2.262z"></path>
<path d="M12.532 14.293c-0.998-0.997-1.548-2.323-1.548-3.732s0.55-2.736 1.548-3.732c0.295-0.296 0.295-0.772 0-1.066s-0.772-0.296-1.066 0c-1.282 1.281-1.989 2.986-1.989 4.798s0.707 3.517 1.989 4.798c0.146 0.147 0.34 0.221 0.533 0.221s0.386-0.073 0.533-0.219c0.295-0.296 0.295-0.771 0-1.066z"></path>
</symbol>
<symbol id="edit" viewBox="0 0 32 32">
<path d="M20.465 9.946l-15.064 15.071c-0.437 0.437-0.437 1.149 0 1.586 0.215 0.215 0.503 0.326 0.79 0.326s0.574-0.111 0.79-0.326l15.064-15.064c0.437-0.437 0.437-1.149 0-1.586-0.431-0.444-1.142-0.444-1.58-0.007z"></path>
<path d="M28.141 12.524c0.287 0 0.574-0.111 0.79-0.326l1.645-1.645c1.899-1.899 1.899-4.987 0-6.879l-2.245-2.245c-0.92-0.92-2.141-1.423-3.44-1.423s-2.519 0.509-3.44 1.423l-1.645 1.645c-0.437 0.437-0.437 1.149 0 1.586l7.545 7.545c0.215 0.209 0.503 0.32 0.79 0.32zM23.037 3.002c0.496-0.496 1.155-0.77 1.86-0.77 0.698 0 1.364 0.274 1.86 0.77l2.245 2.245c1.025 1.025 1.025 2.689 0 3.714l-0.862 0.862-5.966-5.966 0.862-0.855z"></path>
<path d="M10.629 30.493l15.893-15.893c0.437-0.437 0.437-1.149 0-1.586s-1.149-0.437-1.586 0l-15.619 15.632-6.893 0.927 0.927-6.893 14.921-14.921c0.437-0.437 0.437-1.149 0-1.586s-1.149-0.437-1.586 0l-15.182 15.195c-0.176 0.176-0.287 0.398-0.32 0.64l-1.175 8.72c-0.046 0.346 0.072 0.692 0.32 0.94 0.209 0.209 0.496 0.326 0.79 0.326 0.052 0 0.098-0.007 0.15-0.013l8.72-1.175c0.242-0.026 0.47-0.137 0.64-0.313z"></path>
</symbol>
<symbol id="archive-unpack" viewBox="0 0 32 32">
<path d="M24.533 18.133c-3.823 0-6.933 3.11-6.933 6.933s3.11 6.933 6.933 6.933 6.933-3.11 6.933-6.933-3.11-6.933-6.933-6.933zM24.533 30.933c-3.235 0-5.867-2.632-5.867-5.867s2.632-5.867 5.867-5.867 5.867 2.632 5.867 5.867-2.632 5.867-5.867 5.867z"></path>
<path d="M27.733 24.533h-6.4c-0.294 0-0.533 0.238-0.533 0.533s0.239 0.533 0.533 0.533h6.4c0.294 0 0.533-0.238 0.533-0.533s-0.239-0.533-0.533-0.533z"></path>
<path d="M29.333 1.51c0-0.833-0.678-1.51-1.51-1.51h-25.779c-0.833 0-1.511 0.678-1.511 1.51v13.956h28.8v-13.956zM19.733 7.731c0 1.031-0.838 1.869-1.869 1.869h-5.862c-1.031 0-1.869-0.838-1.869-1.869v-0.797c0-0.295 0.239-0.533 0.533-0.533s0.533 0.238 0.533 0.533v0.797c0 0.443 0.36 0.803 0.803 0.803h5.862c0.442 0 0.802-0.36 0.802-0.803v-0.797c0-0.295 0.239-0.533 0.533-0.533s0.533 0.238 0.533 0.533v0.797z"></path>
<path d="M16 25.067h-3.997c-1.031 0-1.869-0.838-1.869-1.869v-0.797c0-0.295 0.239-0.533 0.533-0.533s0.533 0.238 0.533 0.533v0.797c0 0.443 0.36 0.803 0.803 0.803h4.071c0.527-4.203 4.116-7.467 8.459-7.467h-24v13.956c0 0.833 0.678 1.51 1.511 1.51h17.534c-2.162-1.55-3.578-4.077-3.578-6.933z"></path>
</symbol>
<symbol id="archive-add" viewBox="0 0 32 32">
<path d="M24.533 18.133c-3.823 0-6.933 3.11-6.933 6.933s3.11 6.933 6.933 6.933 6.933-3.11 6.933-6.933-3.11-6.933-6.933-6.933zM24.533 30.933c-3.235 0-5.867-2.632-5.867-5.867s2.632-5.867 5.867-5.867 5.867 2.632 5.867 5.867-2.632 5.867-5.867 5.867z"></path>
<path d="M27.733 24.533h-2.667v-2.667c0-0.295-0.239-0.533-0.533-0.533s-0.533 0.238-0.533 0.533v2.667h-2.667c-0.294 0-0.533 0.238-0.533 0.533s0.239 0.533 0.533 0.533h2.667v2.667c0 0.295 0.239 0.533 0.533 0.533s0.533-0.238 0.533-0.533v-2.667h2.667c0.294 0 0.533-0.238 0.533-0.533s-0.239-0.533-0.533-0.533z"></path>
<path d="M29.333 1.51c0-0.833-0.678-1.51-1.51-1.51h-25.779c-0.833 0-1.511 0.678-1.511 1.51v13.956h28.8v-13.956zM19.733 7.731c0 1.031-0.838 1.869-1.869 1.869h-5.862c-1.031 0-1.869-0.838-1.869-1.869v-0.797c0-0.295 0.239-0.533 0.533-0.533s0.533 0.238 0.533 0.533v0.797c0 0.443 0.36 0.803 0.803 0.803h5.862c0.442 0 0.802-0.36 0.802-0.803v-0.797c0-0.295 0.239-0.533 0.533-0.533s0.533 0.238 0.533 0.533v0.797z"></path>
<path d="M16 25.067h-3.997c-1.031 0-1.869-0.838-1.869-1.869v-0.797c0-0.295 0.239-0.533 0.533-0.533s0.533 0.238 0.533 0.533v0.797c0 0.443 0.36 0.803 0.803 0.803h4.071c0.527-4.203 4.116-7.467 8.459-7.467h-24v13.956c0 0.833 0.678 1.51 1.511 1.51h17.534c-2.162-1.55-3.578-4.077-3.578-6.933z"></path>
</symbol>
</defs>
</svg>
